<svg width="189" height="30" viewBox="0 0 189 30" fill="none" xmlns="http://www.w3.org/2000/svg">
<path fill-rule="evenodd" clip-rule="evenodd" d="M85.3105 15.2141C85.3105 14.2255 85.4204 13.292 85.7499 12.3584C86.0245 11.5346 86.4089 10.8207 87.013 10.2166C87.6171 9.61253 88.2761 9.17319 89.0998 8.84369C90.967 8.2396 92.944 8.2396 94.8112 8.84369C95.58 9.11827 96.2939 9.61253 96.898 10.2166C97.4472 10.8207 97.8865 11.5895 98.1611 12.3584C98.4357 13.292 98.6004 14.2255 98.6004 15.2141C98.6004 16.2026 98.4906 17.1361 98.1611 18.0697C97.8865 18.8935 97.4472 19.6074 96.898 20.2115C96.2939 20.8156 95.58 21.3098 94.8112 21.5844C92.944 22.1885 90.967 22.1885 89.0998 21.5844C88.331 21.3098 87.6171 20.8156 87.013 20.2115C86.4638 19.6074 86.0245 18.8386 85.7499 18.0697C85.4753 17.1361 85.3105 16.1476 85.3105 15.2141ZM88.9351 15.2141C88.9351 15.7632 88.99 16.2575 89.0998 16.8066C89.2097 17.3009 89.3744 17.7402 89.649 18.1796C89.8687 18.564 90.1982 18.8935 90.5826 19.1132C91.4612 19.6074 92.4497 19.6074 93.3284 19.1132C93.7128 18.8935 94.0423 18.564 94.262 18.1796C94.5366 17.7402 94.7013 17.3009 94.8112 16.8066C94.921 16.3124 94.9759 15.7632 94.9759 15.2141C94.9759 14.6649 94.921 14.1157 94.8112 13.6215C94.7013 13.1272 94.5366 12.6879 94.262 12.3035C94.0423 11.919 93.7128 11.6445 93.3284 11.4248C92.4497 10.9854 91.4612 10.9854 90.5826 11.4248C90.1982 11.6445 89.8687 11.974 89.649 12.3584C89.3744 12.7977 89.2097 13.237 89.0998 13.6764C88.99 14.1706 88.9351 14.6649 88.9351 15.2141ZM54.8905 12.3581C54.561 13.2917 54.4512 14.2253 54.4512 15.2138C54.4512 16.2023 54.6159 17.1359 54.9454 18.1244C55.1651 18.8933 55.6044 19.6621 56.1536 20.2662C56.7577 20.8703 57.4716 21.3645 58.2404 21.6391C60.1076 22.2432 62.0846 22.2432 63.9518 21.6391C64.7206 21.3645 65.4346 20.8703 66.0386 20.2662C66.5878 19.6621 67.0271 18.9482 67.3017 18.1244C67.6312 17.1908 67.7411 16.2572 67.7411 15.2687C67.7411 14.2802 67.5763 13.3466 67.3017 12.4131C67.0271 11.6442 66.5878 10.8754 66.0386 10.2713C65.4346 9.66721 64.7206 9.17296 63.9518 8.89838C62.0846 8.29429 60.1076 8.29429 58.2404 8.89838C57.4167 9.17296 56.7028 9.6123 56.1536 10.2164C55.5495 10.8205 55.1651 11.5344 54.8905 12.3581ZM58.2404 16.8064C58.1306 16.2572 58.0757 15.763 58.0757 15.2138V15.2138C58.0757 14.6646 58.0757 14.1704 58.1855 13.6761C58.2954 13.2368 58.4601 12.7975 58.7347 12.3581C58.9544 11.9737 59.2839 11.6442 59.6683 11.4246C60.5469 10.9852 61.5355 10.9852 62.4141 11.4246C62.7985 11.6442 63.183 11.9188 63.4026 12.3032C63.6772 12.6876 63.842 13.127 63.9518 13.6212C64.0616 14.1155 64.1166 14.6647 64.1166 15.2138C64.1166 15.763 64.0616 16.3122 63.9518 16.8064C63.842 17.3007 63.6772 17.74 63.4026 18.1793C63.183 18.5638 62.8535 18.8933 62.469 19.1129C61.5904 19.6072 60.6019 19.6072 59.7232 19.1129C59.3388 18.8933 59.0093 18.5638 58.7896 18.1793C58.515 17.74 58.3503 17.3007 58.2404 16.8064ZM41.49 8.625H35.9434V21.8051H39.4031L39.3482 11.7003H39.4031L42.5883 21.8051H45.8284L49.1234 11.6454H49.1783L49.1234 21.8051H52.5832V8.625H47.2562L44.3456 17.4117H44.2907L41.49 8.625ZM71.6366 11.261H68.3965V8.625H78.4463V11.261H75.2062V21.8051H71.6915L71.6366 11.261ZM83.333 8.625H79.8184V21.8051H83.333V8.625ZM104.978 8.625H100.475V21.8051H103.715L103.55 12.7987H103.605L108.218 21.8051H112.611V8.625H109.371L109.481 17.5765H109.426L104.978 8.625Z" fill="white"/>
<path fill-rule="evenodd" clip-rule="evenodd" d="M180.649 19.1697C180.1 19.0599 179.496 18.8402 179.002 18.5656L178.837 21.5312C179.441 21.7508 180.1 21.8607 180.759 21.9705C181.418 22.0803 182.077 22.1352 182.736 22.1352C183.45 22.1352 184.164 22.0254 184.878 21.9156C185.537 21.7508 186.196 21.5312 186.745 21.2017C187.294 20.8722 187.734 20.4328 188.063 19.8837C188.393 19.2247 188.557 18.4558 188.557 17.7419C188.612 17.0829 188.448 16.4239 188.118 15.8198C187.843 15.3805 187.404 14.9411 186.965 14.6665C186.47 14.392 185.976 14.1723 185.427 14.0075C185.204 13.9331 184.969 13.8698 184.738 13.8077C184.459 13.7323 184.185 13.6585 183.944 13.5682C183.56 13.4584 183.175 13.2936 182.791 13.074C182.516 12.9092 182.352 12.5797 182.352 12.2502C182.352 12.0305 182.462 11.756 182.626 11.5912C182.791 11.4265 183.011 11.2617 183.23 11.2068C183.505 11.097 183.725 11.042 183.999 11.042H184.768C185.262 11.042 185.757 11.097 186.251 11.2068C186.745 11.2617 187.239 11.4265 187.679 11.6461L187.898 8.90027C187.404 8.73552 186.91 8.62569 186.361 8.57077C185.757 8.51585 185.098 8.46094 184.493 8.46094C183.78 8.46094 183.121 8.51585 182.462 8.62569C181.803 8.73552 181.198 8.95519 180.649 9.28469C180.1 9.55928 179.606 9.99861 179.276 10.4929C178.892 11.0969 178.727 11.756 178.727 12.4699C178.672 13.1289 178.837 13.7879 179.167 14.392C179.441 14.8862 179.88 15.2706 180.32 15.5452C180.759 15.8198 181.253 16.0395 181.803 16.2042C181.967 16.2591 182.138 16.314 182.309 16.369C182.651 16.4788 182.992 16.5886 183.285 16.6985C183.67 16.8083 184.054 17.028 184.439 17.2476C184.713 17.4673 184.878 17.7968 184.878 18.1812C184.878 18.4009 184.823 18.6206 184.713 18.8402C184.603 19.005 184.439 19.1148 184.219 19.2247C184.155 19.2407 184.086 19.2613 184.016 19.2826C183.844 19.3343 183.661 19.3894 183.505 19.3894C183.23 19.4443 182.956 19.4443 182.681 19.4443C181.967 19.4443 181.308 19.3345 180.649 19.1697ZM120.569 8.625H115.022H114.912V21.8051H118.372L118.317 11.7003H118.372L121.612 21.8051H124.852L128.202 11.6454H128.257L128.202 21.8051H131.662V8.625H126.335L123.424 17.4117H123.369L120.569 8.625ZM137.646 8.625H134.131V21.8051H137.646V8.625ZM140.178 8.625H144.681L149.129 17.5765H149.184L149.129 8.625H152.369V21.8051H147.976L143.308 12.7987L143.418 21.8051H140.178V8.625ZM164.006 8.625H154.725V21.8051H164.225V19.2789H158.239V16.3134H163.731V13.8421H158.239V11.0963H164.006V8.625ZM166.318 8.625H172.579C173.128 8.625 173.677 8.67992 174.226 8.84467C174.721 8.9545 175.16 9.17417 175.599 9.44875C175.984 9.72334 176.313 10.0528 176.533 10.4922C176.753 10.9315 176.862 11.4807 176.862 11.9749C176.917 12.7438 176.698 13.5126 176.258 14.1716C175.764 14.7757 175.105 15.1601 174.336 15.3249V15.3798C174.611 15.4347 174.83 15.5445 174.995 15.7093C175.16 15.874 175.325 16.0937 175.435 16.3134C175.599 16.588 175.709 16.8625 175.764 17.1371C175.791 17.2171 175.817 17.3003 175.845 17.3859L175.845 17.3861C175.93 17.6533 176.024 17.9444 176.148 18.2355L177.412 21.8051H173.732L172.963 19.4436C172.799 18.9494 172.634 18.51 172.469 18.0707C172.359 17.7412 172.194 17.4666 171.975 17.192C171.81 16.9724 171.59 16.8625 171.371 16.7527C171.096 16.6429 170.822 16.6429 170.547 16.6429H169.833V21.8051H166.318V8.625ZM169.833 14.1167H170.767H171.645C171.92 14.1167 172.194 14.0618 172.469 13.9519C172.689 13.8421 172.908 13.6774 173.073 13.5126C173.238 13.238 173.348 12.9634 173.348 12.6339C173.348 12.3593 173.293 12.0848 173.128 11.8651C172.963 11.6454 172.799 11.5356 172.579 11.4258C172.304 11.3159 172.03 11.261 171.755 11.2061C171.426 11.1512 171.096 11.1512 170.767 11.1512H169.833V14.1167Z" fill="white"/>
<path d="M2.21564 11.6996C2.98447 10.162 3.86315 8.40462 5.56557 8.40462C7.48766 8.40462 8.14667 11.2603 8.97042 14.8848C9.245 15.9832 9.57451 17.4659 9.90401 18.3446C10.3433 17.2462 10.6728 16.093 11.0023 14.9397C11.9359 11.7546 12.54 9.61279 14.0777 9.61279C15.5055 9.61279 16.2195 11.2054 16.9334 12.9078C17.2629 13.6766 17.9219 15.2143 18.3612 15.3791C18.7456 15.3791 19.3497 14.3356 19.7891 13.6766C20.4481 12.5234 21.2718 11.2603 22.5898 11.2603C23.9078 11.2603 24.7316 12.4136 25.5004 13.457C25.8848 13.9512 26.5438 14.8299 26.8184 14.8299C27.4225 14.775 28.0266 14.5553 28.5208 14.1709C28.7954 14.0061 29.0151 13.8963 29.3446 13.7316C28.7954 5.76861 21.9308 -0.217337 13.9679 0.331832C6.93849 0.881002 1.33697 6.37269 0.623047 13.3471H1.22713C1.61155 12.8529 1.94105 12.3037 2.21564 11.6996Z" fill="#FFA62B"/>
<path d="M23.7433 14.7201C23.4687 14.2258 23.0843 13.8414 22.645 13.457C22.2605 13.8414 21.931 14.2808 21.7114 14.775C20.9425 15.9832 20.0639 17.5209 18.4164 17.5209C16.659 17.5209 15.7803 15.4889 15.0115 13.7316C14.7918 13.2923 14.5173 12.5783 14.2427 12.139C13.8033 13.2373 13.4738 14.3357 13.1443 15.4889C12.2107 18.729 11.5517 21.0905 9.84932 21.0905C8.14689 21.0905 7.65264 18.784 6.82889 15.3242C6.49939 13.7865 5.8953 11.3702 5.40105 10.6562C5.01663 10.9308 4.41254 12.139 4.13796 12.6882C3.47896 14.116 2.76504 15.5439 1.3372 15.5439H0.568359C1.00769 23.5068 7.76248 29.6026 15.7254 29.1633C22.8097 28.8338 28.5211 23.3421 29.2899 16.3127C28.576 16.752 27.6973 17.0266 26.8736 17.0266C25.4457 17.0266 24.5121 15.8184 23.7433 14.7201Z" fill="#FFA62B"/>
</svg>
