<?xml version="1.0" encoding="UTF-8" standalone="no"?>
<!-- Generator: Adobe Illustrator 26.0.1, SVG Export Plug-In . SVG Version: 6.00 Build 0)  -->

<svg
   version="1.1"
   id="Ebene_1"
   x="0px"
   y="0px"
   viewBox="0 0 250 120"
   style="enable-background:new 0 0 250 120;"
   xml:space="preserve"
   sodipodi:docname="tu_logo_web_h120-transparent.svg"
   inkscape:version="1.1.1 (3bf5ae0d25, 2021-09-20)"
   xmlns:inkscape="http://www.inkscape.org/namespaces/inkscape"
   xmlns:sodipodi="http://sodipodi.sourceforge.net/DTD/sodipodi-0.dtd"
   xmlns="http://www.w3.org/2000/svg"
   xmlns:svg="http://www.w3.org/2000/svg"><defs
   id="defs1259" /><sodipodi:namedview
   id="namedview1257"
   pagecolor="#ffffff"
   bordercolor="#666666"
   borderopacity="1.0"
   inkscape:pageshadow="2"
   inkscape:pageopacity="0.0"
   inkscape:pagecheckerboard="true"
   showgrid="false"
   inkscape:zoom="4.516"
   inkscape:cx="125"
   inkscape:cy="59.89814"
   inkscape:window-width="1920"
   inkscape:window-height="1017"
   inkscape:window-x="1912"
   inkscape:window-y="-8"
   inkscape:window-maximized="1"
   inkscape:current-layer="Ebene_1" />
<style
   type="text/css"
   id="style1244">
	.st0{fill:#F6F6F6;}
	.st1{fill:#1D1D1B;}
	.st2{fill:none;stroke:#1D1D1B;stroke-width:0.002920000;stroke-miterlimit:3.8637;}
</style>

<g
   id="g1254">
	<path
   class="st1"
   d="M74.5,95.4c-0.9-0.4-2.4-0.8-4-1.2c0.1,0.9,0.2,1.7,0.3,2.4C72.1,96.2,73.3,95.8,74.5,95.4L74.5,95.4z    M70.5,93.4c2,0.5,4.1,1.1,4.9,1.6c0.7-0.3,1.4-0.6,2.1-0.9c-1.2-0.7-4.2-1.6-6.9-2.4C70.5,92.3,70.5,92.9,70.5,93.4L70.5,93.4z    M75.6,95.8C75.5,95.8,75.5,95.8,75.6,95.8c-2.3,0.9-4.5,1.5-6.7,2h-0.1c-2,0.4-4,0.7-6,0.8h-0.1c-6.6,0.4-12.8-0.9-17.5-3L45,95.5   c0,0-0.1,0-0.1-0.1C37,91.7,33.4,85.2,41.2,80c-0.8-1.3-1.8-2.6-2.9-3.9c-0.3-0.4-0.7-0.9-1-1.3c-0.6,1.6-0.7,2.7,0.3,4.1   c0.1,0.2,0.1,0.3,0,0.5L32.1,86c-0.1,0.2-0.4,0.2-0.5,0C4,55.7,35.5,9.8,73.5,23c0.2,0.1,0.3,0.3,0.2,0.5l-6,9.9   c-0.1,0.1-0.2,0.2-0.4,0.2c-1.9-0.3-3-0.2-3.8,0.5c1.7,0.3,3.5,0.7,5.3,1.4c1.6-1.8,3.4-3.5,5.2-5c0,0,0.1,0,0.1-0.1   c0.1-0.1,0.2-0.1,0.3,0c0.1,0,0.2,0.1,0.2,0.2v0.1L78,40.9c0,0.1,0,0.2,0,0.3s-0.1,0.2-0.2,0.2c-0.1,0.1-0.2,0.1-0.3,0.2   c0.7,2.1,5.6,16.9,7.1,20.9c0.5,1.2,1.5,3.5,1.5,4.8s-0.9,2-2.8,2.1c-1,0.9-1.1,1.3-0.6,1.9c1,1.4,0.5,2-0.7,2.9   c1.1,0.9,0.9,2.5,0.3,2.5c-0.8,0-1.1,0.3-1.6,0.9c3.5,3.4,0.6,6.4-4.1,7.4c-1.5,0.3-3.2,0.5-5,0.4c0,0,0,0,0,0.1   c-0.6,2-1,3.9-1.1,5.6c3.1,0.9,6.8,2,7.8,2.8l0.1,0.1c0.1,0.1,0.1,0.2,0.1,0.3c0,0.1-0.1,0.2-0.2,0.2c0,0-0.1,0-0.1,0.1   C77.4,95,76.5,95.4,75.6,95.8L75.6,95.8z M42.9,82.2L42.9,82.2c0.2,1,0.3,1.9,0.3,2.9c2.2-1.5,1.6-4,1-5.2   c-0.6,0.4-1.1,0.7-1.7,1.1C42.6,81.4,42.7,81.8,42.9,82.2L42.9,82.2z M42.3,82.9c-1.6,1-2.3,2.1-2.4,3.3c1-0.1,1.9-0.4,2.5-0.7   C42.5,84.6,42.4,83.7,42.3,82.9L42.3,82.9z M39.8,86.9c0,0.5,0.2,0.9,0.4,1.4c5-0.1,8.7-5,6-9.9c-0.5,0.4-1,0.8-1.5,1.1   C45.7,81.4,46.6,86.2,39.8,86.9L39.8,86.9z M40.7,89c0.4,0.6,0.9,1.1,1.5,1.6c7.3-2.1,8.8-8.2,5.9-13.7c-0.4,0.4-0.8,0.7-1.3,1.1   C49.9,83.3,45.9,88.6,40.7,89L40.7,89z M42.9,91.1c0.7,0.4,1.5,0.8,2.3,1.1c9-4.5,6.8-13.8,4.8-17c-0.4,0.4-0.9,0.8-1.3,1.2   C51.7,82.2,50.3,88.7,42.9,91.1L42.9,91.1z M70.9,54.7c3.1-1.2,7-1.8,10-0.9c-1.3-4-2.7-8.1-3.5-10.5c0,4-1.9,7.8-5.8,9.4   C71.4,53.4,71.2,54.1,70.9,54.7L70.9,54.7z M69.8,55.3C69.8,55.3,69.8,55.2,69.8,55.3c0.6-0.9,1-1.8,1.2-2.8v-0.1   c0.2-0.8,0.2-1.7,0.2-2.6v-0.1c0-0.6-0.1-1.3-0.3-2c-0.5,0.5-0.9,1-1.3,1.6c0.2,2.3-0.3,4.8-2.8,7c0.1,0.7,0.1,1.4,0,2.1   C68.1,57.4,69.1,56.4,69.8,55.3L69.8,55.3z M51.4,76.5c0.2-0.8,0.6-1.4,1.2-2c-0.3-0.5-0.4-1.1-0.5-1.6c-0.5,0.6-1,1.1-1.6,1.7   C50.8,75.2,51.1,75.8,51.4,76.5L51.4,76.5z M53.1,74.1c0.4-0.3,0.9-0.5,1.4-0.7c-0.3-0.7-0.5-1.6-0.6-2.6c-0.4,0.5-0.9,1-1.3,1.5   C52.7,72.9,52.9,73.5,53.1,74.1L53.1,74.1z M36.1,76.8c0-0.8,0.3-1.7,0.7-2.7c-1.8-2.6-3.4-6-3.9-11V63c0-0.5-0.1-1-0.1-1.5v-0.1   c0-0.2,0-0.3,0-0.5c-0.1-1.6,0-3.3,0.3-4.9v-0.1c0.1-0.5,0.2-1,0.3-1.5v-0.1c1.1-4.6,3.4-9,6.7-12.6l0.1-0.1c1-1,2.1-2,3.2-2.9l0,0   c1.8-1.4,3.8-2.5,6-3.3c0,0,0,0,0.1,0c2.7-1,5.7-1.6,8.9-1.6c0.2,0,0.4,0,0.6,0c1.2,0,2.4,0.1,3.7,0.3c0.6-0.7,1.2-1.1,2.1-1.2   c-0.1,0-0.1,0-0.2-0.1l0,0c-1.6-0.4-3.1-0.7-4.7-0.8l0,0c-8.2-0.5-16.2,3.1-21.6,9.1l0,0c-1.1,1.2-2.1,2.5-3,3.9c0,0,0,0,0,0.1   c-0.8,1.3-1.5,2.7-2.1,4.1l0,0c-0.6,1.4-1.1,2.9-1.4,4.4c-1.4,5.9-0.9,12.4,2.3,19l0,0C34.4,74,35.2,75.4,36.1,76.8L36.1,76.8z    M37.4,73.8L37.4,73.8c0.4,0.5,0.6,0.8,0.9,1.2c1.4-1.1,2.7-2.2,4-3.4c-0.6-0.3-1.2-0.6-1.7-0.9c-1,1-1.6,1.4-3.3,1.4   c-0.3,0-0.4-0.2-0.3-0.5c0.3-0.9,0-3.2,0-4.4c-0.1-0.2-0.3-0.5-0.4-0.7c-0.4,0.1-1,0.1-1.7,0.1c-0.4,0-0.5-0.3-0.2-0.6   c1.1-1,0.9-2.4,1.2-4.3c-0.6,0.3-1.8,1.1-2.2,1.4C34.1,68,35.7,71.3,37.4,73.8L37.4,73.8z M40.9,78.4c14.6-9.8,20.4-27.5,33.5-38.7   l-1.9-0.4c-0.4-0.1-0.4-0.1-0.3-0.5l0.3-2.7C60.3,48.4,53.6,68.6,40,77.2C40.3,77.6,40.6,78,40.9,78.4L40.9,78.4z M74.8,33.8   c-0.6,0.5-1.1,1-1.6,1.5l-0.4,3.4l2.2,0.5c0.4-0.3,0.8-0.7,1.3-1l-0.3-1c-0.6,0.2-1.3-0.1-1.6-0.8c-0.2-0.6,0.1-1.3,0.8-1.6   L74.8,33.8L74.8,33.8z M43.1,71.8c-1.4,1.3-2.8,2.6-4.4,3.8l0.1,0.1c0.2,0.3,0.5,0.6,0.7,0.9c7.2-4.5,12.4-12.3,17.6-20.5   c4.5-7.2,9.3-15.2,15.4-21.2l0.1-0.1c0.6-0.6,1.3-1.2,1.9-1.8L74,31.5c-2.4,2-4.5,4.2-6.6,6.6c0,0,0,0.1-0.1,0.1   c-3.9,4.7-7.2,10-10.3,14.9c-1.7,2.6-3.3,5.2-5.1,7.8c0,0,0,0.1-0.1,0.1c-0.7,1-1.5,2-2.2,3.1c0,0,0,0.1-0.1,0.1   c-0.5,0.7-1.1,1.4-1.7,2.1c0,0,0,0.1-0.1,0.1c-0.8,1-1.7,2-2.6,3c0,0,0,0.1-0.1,0.1C44.6,70.2,43.8,71,43.1,71.8L43.1,71.8   L43.1,71.8z M42.8,71.1c0.5-0.5,1.1-1.1,1.6-1.6c-3.3-0.5-5.2-2.1-5.9-4.1c-0.5,0.4-0.8,0.7-1.2,0.9c0.1,0.2,0.2,0.4,0.3,0.6   c0,0,0.1,0.1,0.1,0.2C39,69.2,40.5,69.9,42.8,71.1L42.8,71.1z M44.9,68.8c0.5-0.6,1.1-1.2,1.6-1.8c-6.1,1.7-10-7.9,0.5-11.8   c-0.8-0.3-1.5-0.5-2.2-0.9C38,57.3,35.7,67.6,44.9,68.8L44.9,68.8z M47.5,65.8c0.5-0.7,1.1-1.3,1.6-2c0.2-1.8-0.2-3.8-2.5-4.8   c-0.6,0.3-1.2,0.7-1.7,1.2c3.3,0.5,3.2,4.7,0.2,4.7c-2.5,0-2.4-3.1-1.3-4.6c0,0,0-0.1,0.1-0.1l0,0c0.5-0.7,1.3-1.3,2.4-1.9   c0,0,0.1,0,0.1-0.1c0.8-0.4,1.8-0.7,2.9-1h0.1c0.7-0.2,1.4-0.3,2.3-0.4c-0.6-0.3-1.4-0.5-2.1-0.8c-0.5-0.2-1-0.3-1.6-0.5   C36.9,59.1,41.4,69,47.5,65.8L47.5,65.8z M49.8,62.7c0.5-0.7,1-1.4,1.5-2.1c-0.1-0.7-0.9-2-1.8-2.7c-0.7,0.2-1.4,0.4-2.1,0.7   C49.2,59.6,49.8,61.2,49.8,62.7L49.8,62.7z M51.8,59.9c0.5-0.8,1-1.5,1.5-2.3c-0.1-0.1-0.3-0.2-0.4-0.3c-0.7,0.1-1.6,0.2-2.6,0.4   C51,58.4,51.5,59.2,51.8,59.9L51.8,59.9z M53.7,57.1c0.5-0.8,1-1.6,1.6-2.4c-2-0.5-5.5-0.2-7.8-0.2c0.8,0.3,1.6,0.5,2.4,0.8   c1.2,0.4,2.3,0.8,3.3,1.4c0,0,0.1,0,0.1,0.1C53.4,56.9,53.6,57,53.7,57.1L53.7,57.1z M55.7,54c0.4-0.6,0.7-1.2,1.1-1.7   c-2.2-0.7-5.7-0.5-7.9-0.5c-2.6,0-5.4,0.1-7.5-0.5c1.1,1,2.5,1.8,4,2.4c1.1,0.2,3.8,0,4.7,0C52.1,53.7,54.3,53.7,55.7,54L55.7,54z    M57.2,51.7c0.3-0.5,0.6-1,0.9-1.5c-2.8-1.1-7.3-0.7-10.2-0.7c-3.3,0-6.7-0.2-8.9-2c0.3,1.1,0.8,2,1.4,2.8   c3.2,1.4,9.4,0.7,13.1,0.8C54.9,51.2,56.2,51.3,57.2,51.7L57.2,51.7z M58.5,49.6c0.3-0.5,0.6-1,1-1.5c-1.1-0.4-2.2-0.6-3.3-0.8   h-0.1c-2.8-0.4-5.6-0.3-8.6-0.3c-1.9,0-3.6-0.1-5.2-0.5h-0.1c-1.3-0.4-2.4-1.1-3.3-2.4c-0.1,0.1-0.2,0.2-0.3,0.4   c0,0.6,0.1,1.1,0.2,1.7c1.8,2.4,5.3,2.7,9.2,2.7C51,48.8,55.6,48.4,58.5,49.6L58.5,49.6z M67.2,37.4c0.3-0.4,0.7-0.8,1-1.2   c-1.9-0.6-3.7-1.1-5.5-1.3h-0.1c-0.8-0.1-1.6-0.2-2.4-0.3c0.3,0.4,0.5,1.1,0.5,1.9c0.4,0.4,0.7,0.9,0.7,1.4c0.5-0.3,1.2-0.4,2-0.2   C64,36.3,66,36,67.2,37.4L67.2,37.4z M27.6,79.9l6.5-4.9c-0.3-0.6-0.6-1.1-0.9-1.7l-5.5,3.3c-0.4,0.2-0.8-0.4-0.4-0.6l5.5-3.4   c-0.2-0.5-0.4-0.9-0.6-1.4l-7.5,3.5C25.6,76.5,26.6,78.2,27.6,79.9L27.6,79.9z M34.5,75.6L28,80.5c1.1,1.6,2.3,3.2,3.7,4.8l5.1-6.1   c-0.3-0.5-0.7-0.9-1-1.4l-4.9,4.8c-0.3,0.3-0.8-0.2-0.5-0.5l5-4.9C35.1,76.7,34.8,76.1,34.5,75.6L34.5,75.6z M24.6,74.1l7.5-3.5   c-0.2-0.5-0.4-1-0.5-1.5l-6.1,1.8c-0.5,0.1-0.7-0.6-0.2-0.7l6.1-1.8c-0.2-0.7-0.4-1.3-0.5-2l-8.1,1.7   C23.1,70.2,23.8,72.1,24.6,74.1L24.6,74.1z M22.5,67.5l8.1-1.7c-0.1-0.6-0.2-1.2-0.3-1.7l-6.5,0.6c-0.5,0-0.5-0.7-0.1-0.7l6.5-0.6   c-0.1-0.6-0.1-1.3-0.2-1.9l-8.3-0.2C21.8,63.3,22.1,65.4,22.5,67.5L22.5,67.5z M21.7,60.5l8.3,0.2c0-0.6,0-1.1,0-1.7l-6.4-0.7   c-0.5-0.1-0.4-0.8,0.1-0.7l6.4,0.7c0-0.7,0.1-1.4,0.2-2.1l-8.1-1.7C21.9,56.5,21.7,58.5,21.7,60.5L21.7,60.5z M22.3,53.8l8.1,1.7   c0.1-0.6,0.2-1.1,0.3-1.6l-6.2-2c-0.5-0.1-0.2-0.8,0.2-0.7l6.1,1.9c0.1-0.5,0.3-1.1,0.4-1.6l-7.5-3.7   C23.2,49.7,22.6,51.7,22.3,53.8L22.3,53.8z M24.1,47.1l7.4,3.7c0.2-0.5,0.4-1.1,0.6-1.6l-5.7-3.5c-0.4-0.2,0-0.9,0.4-0.6l5.6,3.4   c0.2-0.6,0.5-1.1,0.8-1.7l-6.7-5.1C25.6,43.5,24.8,45.3,24.1,47.1L24.1,47.1z M26.8,41.2l6.7,5.1c0.2-0.4,0.5-0.9,0.8-1.3l-4.9-4.7   c-0.3-0.3,0.2-0.8,0.5-0.5l4.8,4.6c0.4-0.6,0.7-1.1,1.1-1.6l-5.6-6.5C29,37.8,27.8,39.4,26.8,41.2L26.8,41.2z M30.6,35.7l5.6,6.5   c0.4-0.4,0.7-0.9,1.1-1.3l-4.2-5.7c-0.3-0.4,0.3-0.8,0.6-0.4l4.1,5.6c0.4-0.4,0.8-0.9,1.3-1.3l-4.4-7.6   C33.2,32.7,31.9,34.1,30.6,35.7L30.6,35.7z M35.2,30.9l4.4,7.6c0.4-0.3,0.8-0.7,1.2-1l-2.9-6.7c-0.2-0.4,0.5-0.7,0.7-0.3l2.8,6.5   c0.5-0.4,1-0.8,1.6-1.1l-2.9-8.7C38.4,28.4,36.7,29.6,35.2,30.9L35.2,30.9z M40.7,26.9l2.9,8.7c0.5-0.3,0.9-0.6,1.4-0.8l-1.7-7.3   c-0.1-0.5,0.6-0.6,0.7-0.2l1.7,7c0.5-0.3,1-0.5,1.5-0.8l-1.3-9.4C44.1,25,42.4,25.9,40.7,26.9L40.7,26.9z M46.6,23.9l1.3,9.4   c0.5-0.2,1.1-0.4,1.7-0.6l-0.3-7.8c0-0.5,0.7-0.5,0.7,0l0.2,7.6c0.5-0.2,1.1-0.3,1.7-0.5l0.7-9.8C50.5,22.6,48.5,23.2,46.6,23.9   L46.6,23.9z M53.3,22.1l-0.7,9.8c0.6-0.1,1.3-0.3,1.9-0.3l1.2-7.7c0.1-0.5,0.8-0.4,0.7,0.1l-1.1,7.5c0.5-0.1,1-0.1,1.5-0.1l2.5-9.8   C57.3,21.5,55.3,21.7,53.3,22.1L53.3,22.1z M60.1,21.5l-2.5,9.8c0.6,0,1.3,0,1.9,0l2.4-7.7c0.1-0.5,0.8-0.2,0.7,0.2l-2.4,7.5   c0.6,0.1,1.2,0.1,1.8,0.2l4.1-9.6C64.1,21.6,62.1,21.5,60.1,21.5L60.1,21.5z M66.8,22.1l-4.1,9.6c0.5,0.1,1.1,0.2,1.6,0.4l4-7.8   c0.2-0.4,0.9-0.1,0.6,0.3l-4,7.6c0.7,0.2,1.4,0.4,2.1,0.7l5.6-9.3C70.7,22.9,68.8,22.4,66.8,22.1L66.8,22.1z M53.9,43.6   c0,0.1,0,0.1-0.1,0.2c0,0.1-0.1,0.1-0.2,0.1c0,0,0,0-0.1,0c-0.6,0.1-1.2,0.1-1.8,0c-0.1,0.1-0.1,0.1-0.2,0.2   c0.1,0.7,0.4,1.5,1.2,2.3c0.5,0,1.1,0,1.6,0.1l1.6-6.5c-1.8-0.5-2.2-3.6,0.1-4c0-0.5,0.2-1,0.5-1.3c-1.2,0.1-2.4,0.2-3.6,0.5   l0.3,3.7V39v0.4c0,0.5-0.7,0.5-0.7,0.1v-0.3l-1.5-1c-0.4,0.3-0.6,0.8-0.6,1.3c0,1,0.8,1.8,1.8,1.8c0.2,0,0.3,0,0.5-0.1v-0.1   c0-0.5,0.7-0.5,0.7-0.1v0.4v0.1L53.9,43.6C53.9,43.5,53.9,43.6,53.9,43.6L53.9,43.6z M51.3,37l0.2,0.1c0,0,0,0,0.1,0l1.2,0.8   L52.5,35c-0.9,0.2-1.8,0.5-2.7,0.8c-1.9,2-1.6,4.2-0.5,5.6l0.1,0.1c0.9,1.1,2.4,1.7,3.8,1.5L53,41.7c-0.2,0-0.4,0.1-0.6,0.1   c-1.4,0-2.5-1.1-2.5-2.5c0-0.7,0.3-1.3,0.8-1.8C50.6,37.2,50.9,36.8,51.3,37L51.3,37z M50.9,43.6c-0.8-0.3-1.5-0.8-2-1.3   c-2.5,0.6-4.7-1.2-5.5-2.8c-0.9,0.7-1.7,1.4-2.4,2.1l1.5,0.4c0,0,0,0,0.1,0l0.4,0.1c0.1,0,0.1,0,0.2,0.1c0.1,0,0.1,0.1,0.1,0.1   C45,44.4,49.3,44.4,50.9,43.6L50.9,43.6z M48.4,41.6c-1-1.4-1.2-3.2,0-5.1c-1.6,0.7-3.1,1.6-4.4,2.6C44.6,40.4,46.4,41.9,48.4,41.6   L48.4,41.6z M42.7,42.8L42.7,42.8c-0.3,0.7-0.3,2.2-0.1,3c1.4,0.4,3,0.5,4.8,0.5c1.5,0,3,0,4.4,0c-0.5-0.6-0.8-1.3-0.9-1.9   C48.8,45.2,44.6,44.9,42.7,42.8L42.7,42.8z M43.9,53.9c-0.5-0.2-0.9-0.5-1.3-0.8c-0.5,0.4-1,0.8-1.5,1.1c0,0,0,0-0.1,0   c-0.9,0.8-1.7,1.5-2.3,2.2c0,0,0,0-0.1,0.1c-0.3,0.3-0.5,0.6-0.7,1c0,0,0,0.1-0.1,0.1c-0.8,1.3-1.2,2.4-1.4,3.5   c-0.3,1.5-0.1,3.5-1,4.8c1.4-0.1,1.8-0.5,2.6-1.3C37.4,60.8,40.1,55.9,43.9,53.9L43.9,53.9z M44.4,60.8c-0.1,0.1-0.2,0.3-0.3,0.4   c-0.8,1.6,0.1,2.9,1,2.9C47.4,64.1,47.2,61,44.4,60.8L44.4,60.8z M40.3,54c-1.2-1-2.6-2-3.3-3.5c-0.1,0.8-0.1,1.6,0.1,2.3l0,0   c0.3,1.2,0.9,2.2,1.4,2.9C39,55.2,39.6,54.6,40.3,54L40.3,54z M37.7,68.4c0.1,1,0.2,2,0,3c1.1-0.1,1.6-0.4,2.2-1   C39.1,69.8,38.4,69.2,37.7,68.4L37.7,68.4z M37.3,55.1L36,55.8l0.7,1.5c0.3-0.1,0.5-0.2,0.8-0.3c0.2-0.2,0.4-0.5,0.6-0.8   C37.8,55.9,37.6,55.5,37.3,55.1L37.3,55.1z M33.4,61.5c0,0.3,0,0.6,0.1,0.9c0.7-0.5,1.8-1.2,2.4-1.4c0.2-0.9,0.5-1.8,1-2.8   c-0.1,0-0.1,0.1-0.2,0.1l0,0C35.1,59.1,33.7,60.9,33.4,61.5L33.4,61.5z M33.5,56.9c-0.1,1.1-0.2,2.2-0.2,3.3c0.3-0.5,0.8-1,1.3-1.5   L33.5,56.9L33.5,56.9z M33.9,54.6c-0.1,0.4-0.2,0.9-0.2,1.3l1.5,2.5c0.3-0.2,0.5-0.4,0.8-0.6c-1.2-2.6-1.5-2,1-3.2   c-0.2-0.4-0.3-0.8-0.5-1.2C35.9,53.5,34.8,53.9,33.9,54.6L33.9,54.6z M37.9,45.4c-1.7,2.5-3,5.3-3.7,8.2c0.8-0.5,1.6-0.8,2.2-1   c-0.2-1.1-0.2-2.2,0.3-3.5c0.2-0.4,0.6-0.4,0.7,0.1c0.3,1.8,2.1,3.2,3.5,4.3c0.3-0.3,0.7-0.6,1.1-0.8C39.9,51.2,38.3,49,37.9,45.4   L37.9,45.4z M40.4,42.2c-0.4,0.4-0.8,0.8-1.1,1.3c0.7,1,1.6,1.6,2.6,2.1c-0.1-0.9-0.1-2.1,0.1-2.9L40.4,42.2L40.4,42.2z M60.5,39.9   c-0.3,0.2-0.7,0.3-1.2,0.3c-0.1,1-0.3,2.1-0.1,3.1l1.9-2C60.7,40.8,60.5,40.3,60.5,39.9L60.5,39.9z M58.3,42   c-0.5-0.1-1.1-0.3-1.3-0.9c-0.1-0.2,0.7-0.1,0.8-0.1c0.2,0,0.4,0,0.6-0.1c0-0.4,0.1-0.8,0.2-1.2l0,0c0-0.1,0-0.3,0.1-0.4   c0.1-0.5,0.8-0.4,0.7,0.1c2.1-0.2,1.7-3.2-0.5-2.7c-0.5,0.1-0.6-0.6-0.1-0.7c0.5-0.1,0.9-0.1,1.3,0c-0.2-3-4.9-1.2-2.2,1.1   c0.4,0.3-0.1,0.9-0.5,0.5c-0.5-0.4-0.8-0.8-0.9-1.2c-1.6,0.3-1.2,2.3-0.1,2.6v-0.1c0.1-0.5,0.8-0.3,0.7,0.2L57,39.5l0,0l-1.8,7   c0.3,0,0.6,0.1,0.9,0.1l2.5-2.7C58.4,43.3,58.3,42.7,58.3,42L58.3,42z M61.9,44.5c-0.4-0.5-0.5-1.3-0.4-2c0.1-0.3,0.4,0.2,0.5,0.3   c0.2,0.2,0.5,0.3,0.8,0.5c0.6-0.9,1.2-1.7,1.8-2.6c0.7-0.9,1.4-1.9,2.2-2.8c-1.2-1.5-3.3-0.6-2.7,1.7c0.1,0.5-0.6,0.6-0.7,0.2   c-0.1-0.5-0.2-1-0.1-1.4c-1.6-0.5-2.7,0.9-1.7,2.3c0.3-0.3,0.8,0.2,0.5,0.5l-2.8,3l-0.1,0.1L57,46.7c1,0.2,2,0.4,3,0.8   C60.5,46.5,61.2,45.5,61.9,44.5L61.9,44.5z M58.7,64.5c4-1.6,5.2-4.8,5-7.3c-0.9,1.3-1.8,2.6-2.6,3.9   C60.3,62.2,59.5,63.3,58.7,64.5L58.7,64.5z M66.6,55.4c1.7-1.7,2.2-3.6,2.2-5.3c-0.9,1.2-1.8,2.4-2.7,3.6   C66.3,54.3,66.5,54.8,66.6,55.4L66.6,55.4z M71.8,49c1.8-1.5,2.5-3,2.5-4.9c-1,0.9-1.9,1.8-2.8,2.8C71.6,47.7,71.7,48.4,71.8,49   L71.8,49z M71.7,51.9c3.7-1.7,5.2-5.7,4.9-9.8c-0.6,0.4-1.2,0.9-1.7,1.4c0.2,2.5-0.7,4.5-3.1,6.3C71.8,50.6,71.8,51.3,71.7,51.9   L71.7,51.9z M57.3,67.3L57.3,67.3c4.2-0.4,7.9-3.7,8.7-8.2V59c0.1-0.9,0.2-1.8,0.1-2.8v-0.1c-0.1-0.6-0.2-1.1-0.4-1.7   c-0.4,0.6-0.9,1.2-1.3,1.9c0.6,3.2-0.8,7.6-6.3,9.2c-0.4,0.6-0.9,1.2-1.4,1.8C56.9,67.3,57.1,67.3,57.3,67.3L57.3,67.3z M41.9,80   L41.9,80c0.1,0.2,0.2,0.3,0.2,0.4c1.4-0.8,2.7-1.7,4-2.8c0,0,0,0,0.1,0c0.6-0.5,1.2-1,1.8-1.5l0.1-0.1c0.6-0.5,1.1-1.1,1.7-1.6   c0,0,0-0.1,0.1-0.1c0.7-0.7,1.5-1.5,2.2-2.3l0.1-0.1c0.6-0.7,1.3-1.5,1.9-2.2c0-0.1,0.1-0.1,0.1-0.1c0.5-0.7,1.1-1.4,1.6-2.1   c0-0.1,0,0,0.1-0.1c0.6-0.8,1.2-1.6,1.7-2.4c0,0,0-0.1,0.1-0.1c2.1-2.9,4.1-5.9,6.1-8.9c0,0,0-0.1,0.1-0.1c0.6-0.8,1.1-1.7,1.7-2.5   c0,0,0-0.1,0.1-0.1c1-1.4,2-2.7,3-4c0.1-0.1,0.2-0.2,0.3-0.4c0,0,0-0.1,0.1-0.1c0.6-0.7,1.2-1.5,1.8-2.2c0,0,0-0.1,0.1-0.1   c1.1-1.2,2.3-2.4,3.4-3.5l0.1-0.1c0.8-0.7,1.5-1.3,2.3-1.8l0.1-0.1l0.1-0.1c0,0,0,0,0.1,0c0.1-0.1,0.2-0.2,0.3-0.2l-0.7-2   c-0.4,0.3-0.8,0.6-1.1,0.9c0,0,0,0-0.1,0.1C61.9,51,56.2,69.1,41.3,79C41.5,79.3,41.7,79.6,41.9,80L41.9,80z M54.7,81.3   C54.7,81.3,54.8,81.3,54.7,81.3c0.4,0.1,0.7,0.1,1,0.1c0.9,0,1.7-0.3,2.4-0.8l0,0c0.8-0.7,1.3-1.7,1.3-2.8c0-0.6-0.1-1.1-0.3-1.5   v-0.1c-0.6-1.2-1.9-2.1-3.3-2.1c-0.2,0-0.4,0-0.5,0h-0.1c-0.7,0.1-1.3,0.4-1.8,0.8h-0.1c-0.8,0.7-1.3,1.7-1.3,2.8   C52,79.4,53.1,80.9,54.7,81.3L54.7,81.3z M45.1,94.8c1.1-0.4,2.1-0.9,2.9-1.4l0.1-0.1c0.8-0.5,1.5-1.1,2.2-1.7c0,0,0-0.1,0.1-0.1   c3.2-3.2,4.1-7.3,4-9.6c-0.7-0.2-1.4-0.7-1.9-1.2c0.4,4.1-0.9,9.1-7,12.1c-0.1,0.1-0.1,0.1-0.2,0.1c0,0-0.1,0-0.2,0   c-1-0.3-2.1-0.9-3-1.5c-0.1-0.1-0.1-0.1-0.2-0.2c-0.8-0.6-1.5-1.4-2-2.2c-0.1-0.1-0.1-0.1-0.1-0.2c-1.2-2.1-1-4.5,2.4-6.5   c-0.2-0.5-0.4-1-0.6-1.5C34.6,85.4,37.3,91.2,45.1,94.8L45.1,94.8z M48.3,94c-0.7,0.4-1.5,0.8-2.3,1.2c4.1,1.7,9.4,2.8,15,2.7   C57.7,96.6,51.5,94.7,48.3,94L48.3,94z M50.7,92.2c-0.5,0.4-1,0.9-1.5,1.2c4,0.9,11.1,3.2,13.6,4.3c1.5-0.1,3.1-0.3,4.6-0.5   C63.1,95.9,54.5,93.2,50.7,92.2L50.7,92.2z M55,82.1c0,2.4-0.8,6.4-3.8,9.6c4.4,1.1,14,4.1,17.5,5.4c0.5-0.1,1-0.2,1.4-0.3   c-0.6-2.8-0.6-6.9,0.8-11.4c-4-0.3-8.5-1.5-12.7-4.1c-0.7,0.5-1.6,0.9-2.6,0.9C55.5,82.1,55.2,82.1,55,82.1L55,82.1z M55,72.4   c0.1,0.3,0.2,0.6,0.3,0.9c0.1,0,0.3,0,0.4,0c0.7,0,1.4,0.2,2,0.5C58.1,71.8,56.2,71,55,72.4L55,72.4z M57.6,68.8   c3.2,0.8,4.3,4.8,2.3,7.2c0.2,0.5,0.3,1.1,0.3,1.7c0,1.2-0.5,2.3-1.2,3.1c6.2,3.8,13.2,4.5,17.8,3.5c4.8-1,6.5-3.6,3.5-6.4   c-0.5-0.5,0.9-1.8,2-1.9c0.1-0.7-0.2-1.2-0.7-1.5c-1.5-0.1-3.9,0.6-5.5,1c-0.1,0.3-0.6,0.4-0.7,0c-0.2-0.5,0.3-1.3,0.4-1.5   c0.2-0.5,0.8-0.2,0.6,0.3c-0.1,0.1-0.2,0.3-0.2,0.5c1.6-0.4,3.8-1.1,5.4-1c0.4-0.3,1.4-1,1.2-1.6c-0.1-0.1-0.2-0.3-0.4-0.6   c-0.8-1-0.4-1.7,0.3-2.5c-1.2-0.2-2.8,0-3.6,0.9c-0.5,0.5-1.3-0.9-1.4-1.1c-0.3-0.8-0.3-1.8,0.9-2.9c0.3-0.3,0.8,0.2,0.5,0.5   c-0.9,0.9-1.2,1.8-0.3,2.7l0,0c1.3-1,3.1-1.2,4.6-0.8l0,0l0,0c2.7-0.2,2.5-1.3,1.8-3.2c-0.3-0.8-0.7-1.7-1-2.7   c-0.6-1.5-1.7-4.6-2.8-8c-3.1-1.2-7.5-0.5-10.8,1c-0.8,1.3-2,2.5-3.7,3.7c-0.8,4.6-4.6,8.1-9,8.6L57.6,68.8L57.6,68.8z M56.8,68.7   l0.1-0.7c-0.3,0-0.5,0-0.8,0c-0.5,0.7-1,1.3-1.5,1.9c0,0.6,0.1,1.1,0.2,1.6c1.5-1.3,4.4-0.4,3.5,2.6c0.5,0.3,0.9,0.8,1.2,1.2   c1.6-2.2,0.2-5.8-2.9-5.9c-0.5,0-0.5-0.7,0-0.7C56.7,68.7,56.8,68.7,56.8,68.7L56.8,68.7z M69.2,43.1c0,0.4-0.3,0.7-0.7,0.7   c-0.4,0-0.7-0.3-0.7-0.7s0.3-0.7,0.7-0.7C68.9,42.5,69.2,42.8,69.2,43.1L69.2,43.1z M71.1,40.9c0,0.4-0.3,0.7-0.7,0.7   c-0.4,0-0.7-0.3-0.7-0.7s0.3-0.7,0.7-0.7C70.8,40.2,71.1,40.5,71.1,40.9L71.1,40.9z M67.4,45.5c0,0.3-0.3,0.6-0.6,0.6   s-0.6-0.3-0.6-0.6s0.3-0.6,0.6-0.6S67.4,45.2,67.4,45.5L67.4,45.5z M47,39.1c0,0.4-0.3,0.7-0.7,0.7s-0.7-0.3-0.7-0.7   s0.3-0.7,0.7-0.7C46.7,38.4,47,38.7,47,39.1L47,39.1z M55.7,79c0.7,0,1.3-0.6,1.3-1.3c0-0.7-0.6-1.3-1.3-1.3s-1.3,0.6-1.3,1.3   S55,79,55.7,79L55.7,79z M55.7,79.7c-1.1,0-2-0.9-2-2s0.9-2,2-2s2,0.9,2,2C57.7,78.8,56.8,79.7,55.7,79.7L55.7,79.7z M83.2,68.6   L83.2,68.6L83.2,68.6L83.2,68.6L83.2,68.6z M72.7,60.6c-0.2-0.6-0.3-1.3-0.2-2.1c-1.1,0.3-2.1,0.8-3,1.5c0.3,0.1,0.8,0.2,1.4,0.4   C71.4,60.5,72,60.6,72.7,60.6L72.7,60.6z M73.2,58.3c-0.1,1,0,1.7,0.2,2.3c0.5,0,0.9,0,1.4-0.1c-0.2-0.3-0.4-0.8-0.4-1.2   c0-0.5,0-0.9,0.2-1.3C74.2,58.1,73.7,58.2,73.2,58.3L73.2,58.3z M76.2,57.2c0.5,0,1-0.1,1.3,0c0.2,0,0.3,0.2,0.3,0.4   c0,0.4-0.6,0.7-1,0.8c0.1,0.2,0.1,0.4,0.1,0.7c0.1,1-0.3,1.9-1,2.1c0,0,0,0-0.1,0c-0.8,0.1-1.7,0.2-2.7,0.2c-0.1,0-0.1,0-0.2,0   c-1.5,0-3-0.3-4.2-0.8l0,0c-0.3,0.4-0.9-0.1-0.5-0.5c0,0,0.1-0.1,0.2-0.2c0,0,0,0,0.1-0.1C69.4,59.1,71.8,57.3,76.2,57.2L76.2,57.2   z"
   id="path1248" />
	<path
   class="st2"
   d="M74.5,95.4c-0.9-0.4-2.4-0.8-4-1.2c0.1,0.9,0.2,1.7,0.3,2.4C72.1,96.2,73.3,95.8,74.5,95.4L74.5,95.4z    M70.5,93.4c2,0.5,4.1,1.1,4.9,1.6c0.7-0.3,1.4-0.6,2.1-0.9c-1.2-0.7-4.2-1.6-6.9-2.4C70.5,92.3,70.5,92.9,70.5,93.4L70.5,93.4z    M75.6,95.8C75.5,95.8,75.5,95.8,75.6,95.8c-2.3,0.9-4.5,1.5-6.7,2h-0.1c-2,0.4-4,0.7-6,0.8h-0.1c-6.6,0.4-12.8-0.9-17.5-3L45,95.5   c0,0-0.1,0-0.1-0.1C37,91.7,33.4,85.2,41.2,80c-0.8-1.3-1.8-2.6-2.9-3.9c-0.3-0.4-0.7-0.9-1-1.3c-0.6,1.6-0.7,2.7,0.3,4.1   c0.1,0.2,0.1,0.3,0,0.5L32.1,86c-0.1,0.2-0.4,0.2-0.5,0C4,55.7,35.5,9.8,73.5,23c0.2,0.1,0.3,0.3,0.2,0.5l-6,9.9   c-0.1,0.1-0.2,0.2-0.4,0.2c-1.9-0.3-3-0.2-3.8,0.5c1.7,0.3,3.5,0.7,5.3,1.4c1.6-1.8,3.4-3.5,5.2-5c0,0,0.1,0,0.1-0.1   c0.1-0.1,0.2-0.1,0.3,0c0.1,0,0.2,0.1,0.2,0.2v0.1L78,40.9c0,0.1,0,0.2,0,0.3s-0.1,0.2-0.2,0.2c-0.1,0.1-0.2,0.1-0.3,0.2   c0.7,2.1,5.6,16.9,7.1,20.9c0.5,1.2,1.5,3.5,1.5,4.8s-0.9,2-2.8,2.1c-1,0.9-1.1,1.3-0.6,1.9c1,1.4,0.5,2-0.7,2.9   c1.1,0.9,0.9,2.5,0.3,2.5c-0.8,0-1.1,0.3-1.6,0.9c3.5,3.4,0.6,6.4-4.1,7.4c-1.5,0.3-3.2,0.5-5,0.4c0,0,0,0,0,0.1   c-0.6,2-1,3.9-1.1,5.6c3.1,0.9,6.8,2,7.8,2.8l0.1,0.1c0.1,0.1,0.1,0.2,0.1,0.3c0,0.1-0.1,0.2-0.2,0.2c0,0-0.1,0-0.1,0.1   C77.4,95,76.5,95.4,75.6,95.8L75.6,95.8z M42.9,82.2L42.9,82.2c0.2,1,0.3,1.9,0.3,2.9c2.2-1.5,1.6-4,1-5.2   c-0.6,0.4-1.1,0.7-1.7,1.1C42.6,81.4,42.7,81.8,42.9,82.2L42.9,82.2z M42.3,82.9c-1.6,1-2.3,2.1-2.4,3.3c1-0.1,1.9-0.4,2.5-0.7   C42.5,84.6,42.4,83.7,42.3,82.9L42.3,82.9z M39.8,86.9c0,0.5,0.2,0.9,0.4,1.4c5-0.1,8.7-5,6-9.9c-0.5,0.4-1,0.8-1.5,1.1   C45.7,81.4,46.6,86.2,39.8,86.9L39.8,86.9z M40.7,89c0.4,0.6,0.9,1.1,1.5,1.6c7.3-2.1,8.8-8.2,5.9-13.7c-0.4,0.4-0.8,0.7-1.3,1.1   C49.9,83.3,45.9,88.6,40.7,89L40.7,89z M42.9,91.1c0.7,0.4,1.5,0.8,2.3,1.1c9-4.5,6.8-13.8,4.8-17c-0.4,0.4-0.9,0.8-1.3,1.2   C51.7,82.2,50.3,88.7,42.9,91.1L42.9,91.1z M70.9,54.7c3.1-1.2,7-1.8,10-0.9c-1.3-4-2.7-8.1-3.5-10.5c0,4-1.9,7.8-5.8,9.4   C71.4,53.4,71.2,54.1,70.9,54.7L70.9,54.7z M69.8,55.3C69.8,55.3,69.8,55.2,69.8,55.3c0.6-0.9,1-1.8,1.2-2.8v-0.1   c0.2-0.8,0.2-1.7,0.2-2.6v-0.1c0-0.6-0.1-1.3-0.3-2c-0.5,0.5-0.9,1-1.3,1.6c0.2,2.3-0.3,4.8-2.8,7c0.1,0.7,0.1,1.4,0,2.1   C68.1,57.4,69.1,56.4,69.8,55.3L69.8,55.3z M51.4,76.5c0.2-0.8,0.6-1.4,1.2-2c-0.3-0.5-0.4-1.1-0.5-1.6c-0.5,0.6-1,1.1-1.6,1.7   C50.8,75.2,51.1,75.8,51.4,76.5L51.4,76.5z M53.1,74.1c0.4-0.3,0.9-0.5,1.4-0.7c-0.3-0.7-0.5-1.6-0.6-2.6c-0.4,0.5-0.9,1-1.3,1.5   C52.7,72.9,52.9,73.5,53.1,74.1L53.1,74.1z M36.1,76.8c0-0.8,0.3-1.7,0.7-2.7c-1.8-2.6-3.4-6-3.9-11V63c0-0.5-0.1-1-0.1-1.5v-0.1   c0-0.2,0-0.3,0-0.5c-0.1-1.6,0-3.3,0.3-4.9v-0.1c0.1-0.5,0.2-1,0.3-1.5v-0.1c1.1-4.6,3.4-9,6.7-12.6l0.1-0.1c1-1,2.1-2,3.2-2.9l0,0   c1.8-1.4,3.8-2.5,6-3.3c0,0,0,0,0.1,0c2.7-1,5.7-1.6,8.9-1.6c0.2,0,0.4,0,0.6,0c1.2,0,2.4,0.1,3.7,0.3c0.6-0.7,1.2-1.1,2.1-1.2   c-0.1,0-0.1,0-0.2-0.1l0,0c-1.6-0.4-3.1-0.7-4.7-0.8l0,0c-8.2-0.5-16.2,3.1-21.6,9.1l0,0c-1.1,1.2-2.1,2.5-3,3.9c0,0,0,0,0,0.1   c-0.8,1.3-1.5,2.7-2.1,4.1l0,0c-0.6,1.4-1.1,2.9-1.4,4.4c-1.4,5.9-0.9,12.4,2.3,19l0,0C34.4,74,35.2,75.4,36.1,76.8L36.1,76.8z    M37.4,73.8L37.4,73.8c0.4,0.5,0.6,0.8,0.9,1.2c1.4-1.1,2.7-2.2,4-3.4c-0.6-0.3-1.2-0.6-1.7-0.9c-1,1-1.6,1.4-3.3,1.4   c-0.3,0-0.4-0.2-0.3-0.5c0.3-0.9,0-3.2,0-4.4c-0.1-0.2-0.3-0.5-0.4-0.7c-0.4,0.1-1,0.1-1.7,0.1c-0.4,0-0.5-0.3-0.2-0.6   c1.1-1,0.9-2.4,1.2-4.3c-0.6,0.3-1.8,1.1-2.2,1.4C34.1,68,35.7,71.3,37.4,73.8L37.4,73.8z M40.9,78.4c14.6-9.8,20.4-27.5,33.5-38.7   l-1.9-0.4c-0.4-0.1-0.4-0.1-0.3-0.5l0.3-2.7C60.3,48.4,53.6,68.6,40,77.2C40.3,77.6,40.6,78,40.9,78.4L40.9,78.4z M74.8,33.8   c-0.6,0.5-1.1,1-1.6,1.5l-0.4,3.4l2.2,0.5c0.4-0.3,0.8-0.7,1.3-1l-0.3-1c-0.6,0.2-1.3-0.1-1.6-0.8c-0.2-0.6,0.1-1.3,0.8-1.6   L74.8,33.8L74.8,33.8z M43.1,71.8c-1.4,1.3-2.8,2.6-4.4,3.8l0.1,0.1c0.2,0.3,0.5,0.6,0.7,0.9c7.2-4.5,12.4-12.3,17.6-20.5   c4.5-7.2,9.3-15.2,15.4-21.2l0.1-0.1c0.6-0.6,1.3-1.2,1.9-1.8L74,31.5c-2.4,2-4.5,4.2-6.6,6.6c0,0,0,0.1-0.1,0.1   c-3.9,4.7-7.2,10-10.3,14.9c-1.7,2.6-3.3,5.2-5.1,7.8c0,0,0,0.1-0.1,0.1c-0.7,1-1.5,2-2.2,3.1c0,0,0,0.1-0.1,0.1   c-0.5,0.7-1.1,1.4-1.7,2.1c0,0,0,0.1-0.1,0.1c-0.8,1-1.7,2-2.6,3c0,0,0,0.1-0.1,0.1C44.6,70.2,43.8,71,43.1,71.8L43.1,71.8   L43.1,71.8z M42.8,71.1c0.5-0.5,1.1-1.1,1.6-1.6c-3.3-0.5-5.2-2.1-5.9-4.1c-0.5,0.4-0.8,0.7-1.2,0.9c0.1,0.2,0.2,0.4,0.3,0.6   c0,0,0.1,0.1,0.1,0.2C39,69.2,40.5,69.9,42.8,71.1L42.8,71.1z M44.9,68.8c0.5-0.6,1.1-1.2,1.6-1.8c-6.1,1.7-10-7.9,0.5-11.8   c-0.8-0.3-1.5-0.5-2.2-0.9C38,57.3,35.7,67.6,44.9,68.8L44.9,68.8z M47.5,65.8c0.5-0.7,1.1-1.3,1.6-2c0.2-1.8-0.2-3.8-2.5-4.8   c-0.6,0.3-1.2,0.7-1.7,1.2c3.3,0.5,3.2,4.7,0.2,4.7c-2.5,0-2.4-3.1-1.3-4.6c0,0,0-0.1,0.1-0.1l0,0c0.5-0.7,1.3-1.3,2.4-1.9   c0,0,0.1,0,0.1-0.1c0.8-0.4,1.8-0.7,2.9-1h0.1c0.7-0.2,1.4-0.3,2.3-0.4c-0.6-0.3-1.4-0.5-2.1-0.8c-0.5-0.2-1-0.3-1.6-0.5   C36.9,59.1,41.4,69,47.5,65.8L47.5,65.8z M49.8,62.7c0.5-0.7,1-1.4,1.5-2.1c-0.1-0.7-0.9-2-1.8-2.7c-0.7,0.2-1.4,0.4-2.1,0.7   C49.2,59.6,49.8,61.2,49.8,62.7L49.8,62.7z M51.8,59.9c0.5-0.8,1-1.5,1.5-2.3c-0.1-0.1-0.3-0.2-0.4-0.3c-0.7,0.1-1.6,0.2-2.6,0.4   C51,58.4,51.5,59.2,51.8,59.9L51.8,59.9z M53.7,57.1c0.5-0.8,1-1.6,1.6-2.4c-2-0.5-5.5-0.2-7.8-0.2c0.8,0.3,1.6,0.5,2.4,0.8   c1.2,0.4,2.3,0.8,3.3,1.4c0,0,0.1,0,0.1,0.1C53.4,56.9,53.6,57,53.7,57.1L53.7,57.1z M55.7,54c0.4-0.6,0.7-1.2,1.1-1.7   c-2.2-0.7-5.7-0.5-7.9-0.5c-2.6,0-5.4,0.1-7.5-0.5c1.1,1,2.5,1.8,4,2.4c1.1,0.2,3.8,0,4.7,0C52.1,53.7,54.3,53.7,55.7,54L55.7,54z    M57.2,51.7c0.3-0.5,0.6-1,0.9-1.5c-2.8-1.1-7.3-0.7-10.2-0.7c-3.3,0-6.7-0.2-8.9-2c0.3,1.1,0.8,2,1.4,2.8   c3.2,1.4,9.4,0.7,13.1,0.8C54.9,51.2,56.2,51.3,57.2,51.7L57.2,51.7z M58.5,49.6c0.3-0.5,0.6-1,1-1.5c-1.1-0.4-2.2-0.6-3.3-0.8   h-0.1c-2.8-0.4-5.6-0.3-8.6-0.3c-1.9,0-3.6-0.1-5.2-0.5h-0.1c-1.3-0.4-2.4-1.1-3.3-2.4c-0.1,0.1-0.2,0.2-0.3,0.4   c0,0.6,0.1,1.1,0.2,1.7c1.8,2.4,5.3,2.7,9.2,2.7C51,48.8,55.6,48.4,58.5,49.6L58.5,49.6z M67.2,37.4c0.3-0.4,0.7-0.8,1-1.2   c-1.9-0.6-3.7-1.1-5.5-1.3h-0.1c-0.8-0.1-1.6-0.2-2.4-0.3c0.3,0.4,0.5,1.1,0.5,1.9c0.4,0.4,0.7,0.9,0.7,1.4c0.5-0.3,1.2-0.4,2-0.2   C64,36.3,66,36,67.2,37.4L67.2,37.4z M27.6,79.9l6.5-4.9c-0.3-0.6-0.6-1.1-0.9-1.7l-5.5,3.3c-0.4,0.2-0.8-0.4-0.4-0.6l5.5-3.4   c-0.2-0.5-0.4-0.9-0.6-1.4l-7.5,3.5C25.6,76.5,26.6,78.2,27.6,79.9L27.6,79.9z M34.5,75.6L28,80.5c1.1,1.6,2.3,3.2,3.7,4.8l5.1-6.1   c-0.3-0.5-0.7-0.9-1-1.4l-4.9,4.8c-0.3,0.3-0.8-0.2-0.5-0.5l5-4.9C35.1,76.7,34.8,76.1,34.5,75.6L34.5,75.6z M24.6,74.1l7.5-3.5   c-0.2-0.5-0.4-1-0.5-1.5l-6.1,1.8c-0.5,0.1-0.7-0.6-0.2-0.7l6.1-1.8c-0.2-0.7-0.4-1.3-0.5-2l-8.1,1.7   C23.1,70.2,23.8,72.1,24.6,74.1L24.6,74.1z M22.5,67.5l8.1-1.7c-0.1-0.6-0.2-1.2-0.3-1.7l-6.5,0.6c-0.5,0-0.5-0.7-0.1-0.7l6.5-0.6   c-0.1-0.6-0.1-1.3-0.2-1.9l-8.3-0.2C21.8,63.3,22.1,65.4,22.5,67.5L22.5,67.5z M21.7,60.5l8.3,0.2c0-0.6,0-1.1,0-1.7l-6.4-0.7   c-0.5-0.1-0.4-0.8,0.1-0.7l6.4,0.7c0-0.7,0.1-1.4,0.2-2.1l-8.1-1.7C21.9,56.5,21.7,58.5,21.7,60.5L21.7,60.5z M22.3,53.8l8.1,1.7   c0.1-0.6,0.2-1.1,0.3-1.6l-6.2-2c-0.5-0.1-0.2-0.8,0.2-0.7l6.1,1.9c0.1-0.5,0.3-1.1,0.4-1.6l-7.5-3.7   C23.2,49.7,22.6,51.7,22.3,53.8L22.3,53.8z M24.1,47.1l7.4,3.7c0.2-0.5,0.4-1.1,0.6-1.6l-5.7-3.5c-0.4-0.2,0-0.9,0.4-0.6l5.6,3.4   c0.2-0.6,0.5-1.1,0.8-1.7l-6.7-5.1C25.6,43.5,24.8,45.3,24.1,47.1L24.1,47.1z M26.8,41.2l6.7,5.1c0.2-0.4,0.5-0.9,0.8-1.3l-4.9-4.7   c-0.3-0.3,0.2-0.8,0.5-0.5l4.8,4.6c0.4-0.6,0.7-1.1,1.1-1.6l-5.6-6.5C29,37.8,27.8,39.4,26.8,41.2L26.8,41.2z M30.6,35.7l5.6,6.5   c0.4-0.4,0.7-0.9,1.1-1.3l-4.2-5.7c-0.3-0.4,0.3-0.8,0.6-0.4l4.1,5.6c0.4-0.4,0.8-0.9,1.3-1.3l-4.4-7.6   C33.2,32.7,31.9,34.1,30.6,35.7L30.6,35.7z M35.2,30.9l4.4,7.6c0.4-0.3,0.8-0.7,1.2-1l-2.9-6.7c-0.2-0.4,0.5-0.7,0.7-0.3l2.8,6.5   c0.5-0.4,1-0.8,1.6-1.1l-2.9-8.7C38.4,28.4,36.7,29.6,35.2,30.9L35.2,30.9z M40.7,26.9l2.9,8.7c0.5-0.3,0.9-0.6,1.4-0.8l-1.7-7.3   c-0.1-0.5,0.6-0.6,0.7-0.2l1.7,7c0.5-0.3,1-0.5,1.5-0.8l-1.3-9.4C44.1,25,42.4,25.9,40.7,26.9L40.7,26.9z M46.6,23.9l1.3,9.4   c0.5-0.2,1.1-0.4,1.7-0.6l-0.3-7.8c0-0.5,0.7-0.5,0.7,0l0.2,7.6c0.5-0.2,1.1-0.3,1.7-0.5l0.7-9.8C50.5,22.6,48.5,23.2,46.6,23.9   L46.6,23.9z M53.3,22.1l-0.7,9.8c0.6-0.1,1.3-0.3,1.9-0.3l1.2-7.7c0.1-0.5,0.8-0.4,0.7,0.1l-1.1,7.5c0.5-0.1,1-0.1,1.5-0.1l2.5-9.8   C57.3,21.5,55.3,21.7,53.3,22.1L53.3,22.1z M60.1,21.5l-2.5,9.8c0.6,0,1.3,0,1.9,0l2.4-7.7c0.1-0.5,0.8-0.2,0.7,0.2l-2.4,7.5   c0.6,0.1,1.2,0.1,1.8,0.2l4.1-9.6C64.1,21.6,62.1,21.5,60.1,21.5L60.1,21.5z M66.8,22.1l-4.1,9.6c0.5,0.1,1.1,0.2,1.6,0.4l4-7.8   c0.2-0.4,0.9-0.1,0.6,0.3l-4,7.6c0.7,0.2,1.4,0.4,2.1,0.7l5.6-9.3C70.7,22.9,68.8,22.4,66.8,22.1L66.8,22.1z M53.9,43.6   c0,0.1,0,0.1-0.1,0.2c0,0.1-0.1,0.1-0.2,0.1c0,0,0,0-0.1,0c-0.6,0.1-1.2,0.1-1.8,0c-0.1,0.1-0.1,0.1-0.2,0.2   c0.1,0.7,0.4,1.5,1.2,2.3c0.5,0,1.1,0,1.6,0.1l1.6-6.5c-1.8-0.5-2.2-3.6,0.1-4c0-0.5,0.2-1,0.5-1.3c-1.2,0.1-2.4,0.2-3.6,0.5   l0.3,3.7V39v0.4c0,0.5-0.7,0.5-0.7,0.1v-0.3l-1.5-1c-0.4,0.3-0.6,0.8-0.6,1.3c0,1,0.8,1.8,1.8,1.8c0.2,0,0.3,0,0.5-0.1v-0.1   c0-0.5,0.7-0.5,0.7-0.1v0.4v0.1L53.9,43.6C53.9,43.5,53.9,43.6,53.9,43.6L53.9,43.6z M51.3,37l0.2,0.1c0,0,0,0,0.1,0l1.2,0.8   L52.5,35c-0.9,0.2-1.8,0.5-2.7,0.8c-1.9,2-1.6,4.2-0.5,5.6l0.1,0.1c0.9,1.1,2.4,1.7,3.8,1.5L53,41.7c-0.2,0-0.4,0.1-0.6,0.1   c-1.4,0-2.5-1.1-2.5-2.5c0-0.7,0.3-1.3,0.8-1.8C50.6,37.2,50.9,36.8,51.3,37L51.3,37z M50.9,43.6c-0.8-0.3-1.5-0.8-2-1.3   c-2.5,0.6-4.7-1.2-5.5-2.8c-0.9,0.7-1.7,1.4-2.4,2.1l1.5,0.4c0,0,0,0,0.1,0l0.4,0.1c0.1,0,0.1,0,0.2,0.1c0.1,0,0.1,0.1,0.1,0.1   C45,44.4,49.3,44.4,50.9,43.6L50.9,43.6z M48.4,41.6c-1-1.4-1.2-3.2,0-5.1c-1.6,0.7-3.1,1.6-4.4,2.6C44.6,40.4,46.4,41.9,48.4,41.6   L48.4,41.6z M42.7,42.8L42.7,42.8c-0.3,0.7-0.3,2.2-0.1,3c1.4,0.4,3,0.5,4.8,0.5c1.5,0,3,0,4.4,0c-0.5-0.6-0.8-1.3-0.9-1.9   C48.8,45.2,44.6,44.9,42.7,42.8L42.7,42.8z M43.9,53.9c-0.5-0.2-0.9-0.5-1.3-0.8c-0.5,0.4-1,0.8-1.5,1.1c0,0,0,0-0.1,0   c-0.9,0.8-1.7,1.5-2.3,2.2c0,0,0,0-0.1,0.1c-0.3,0.3-0.5,0.6-0.7,1c0,0,0,0.1-0.1,0.1c-0.8,1.3-1.2,2.4-1.4,3.5   c-0.3,1.5-0.1,3.5-1,4.8c1.4-0.1,1.8-0.5,2.6-1.3C37.4,60.8,40.1,55.9,43.9,53.9L43.9,53.9z M44.4,60.8c-0.1,0.1-0.2,0.3-0.3,0.4   c-0.8,1.6,0.1,2.9,1,2.9C47.4,64.1,47.2,61,44.4,60.8L44.4,60.8z M40.3,54c-1.2-1-2.6-2-3.3-3.5c-0.1,0.8-0.1,1.6,0.1,2.3l0,0   c0.3,1.2,0.9,2.2,1.4,2.9C39,55.2,39.6,54.6,40.3,54L40.3,54z M37.7,68.4c0.1,1,0.2,2,0,3c1.1-0.1,1.6-0.4,2.2-1   C39.1,69.8,38.4,69.2,37.7,68.4L37.7,68.4z M37.3,55.1L36,55.8l0.7,1.5c0.3-0.1,0.5-0.2,0.8-0.3c0.2-0.2,0.4-0.5,0.6-0.8   C37.8,55.9,37.6,55.5,37.3,55.1L37.3,55.1z M33.4,61.5c0,0.3,0,0.6,0.1,0.9c0.7-0.5,1.8-1.2,2.4-1.4c0.2-0.9,0.5-1.8,1-2.8   c-0.1,0-0.1,0.1-0.2,0.1l0,0C35.1,59.1,33.7,60.9,33.4,61.5L33.4,61.5z M33.5,56.9c-0.1,1.1-0.2,2.2-0.2,3.3c0.3-0.5,0.8-1,1.3-1.5   L33.5,56.9L33.5,56.9z M33.9,54.6c-0.1,0.4-0.2,0.9-0.2,1.3l1.5,2.5c0.3-0.2,0.5-0.4,0.8-0.6c-1.2-2.6-1.5-2,1-3.2   c-0.2-0.4-0.3-0.8-0.5-1.2C35.9,53.5,34.8,53.9,33.9,54.6L33.9,54.6z M37.9,45.4c-1.7,2.5-3,5.3-3.7,8.2c0.8-0.5,1.6-0.8,2.2-1   c-0.2-1.1-0.2-2.2,0.3-3.5c0.2-0.4,0.6-0.4,0.7,0.1c0.3,1.8,2.1,3.2,3.5,4.3c0.3-0.3,0.7-0.6,1.1-0.8C39.9,51.2,38.3,49,37.9,45.4   L37.9,45.4z M40.4,42.2c-0.4,0.4-0.8,0.8-1.1,1.3c0.7,1,1.6,1.6,2.6,2.1c-0.1-0.9-0.1-2.1,0.1-2.9L40.4,42.2L40.4,42.2z M60.5,39.9   c-0.3,0.2-0.7,0.3-1.2,0.3c-0.1,1-0.3,2.1-0.1,3.1l1.9-2C60.7,40.8,60.5,40.3,60.5,39.9L60.5,39.9z M58.3,42   c-0.5-0.1-1.1-0.3-1.3-0.9c-0.1-0.2,0.7-0.1,0.8-0.1c0.2,0,0.4,0,0.6-0.1c0-0.4,0.1-0.8,0.2-1.2l0,0c0-0.1,0-0.3,0.1-0.4   c0.1-0.5,0.8-0.4,0.7,0.1c2.1-0.2,1.7-3.2-0.5-2.7c-0.5,0.1-0.6-0.6-0.1-0.7c0.5-0.1,0.9-0.1,1.3,0c-0.2-3-4.9-1.2-2.2,1.1   c0.4,0.3-0.1,0.9-0.5,0.5c-0.5-0.4-0.8-0.8-0.9-1.2c-1.6,0.3-1.2,2.3-0.1,2.6v-0.1c0.1-0.5,0.8-0.3,0.7,0.2L57,39.5l0,0l-1.8,7   c0.3,0,0.6,0.1,0.9,0.1l2.5-2.7C58.4,43.3,58.3,42.7,58.3,42L58.3,42z M61.9,44.5c-0.4-0.5-0.5-1.3-0.4-2c0.1-0.3,0.4,0.2,0.5,0.3   c0.2,0.2,0.5,0.3,0.8,0.5c0.6-0.9,1.2-1.7,1.8-2.6c0.7-0.9,1.4-1.9,2.2-2.8c-1.2-1.5-3.3-0.6-2.7,1.7c0.1,0.5-0.6,0.6-0.7,0.2   c-0.1-0.5-0.2-1-0.1-1.4c-1.6-0.5-2.7,0.9-1.7,2.3c0.3-0.3,0.8,0.2,0.5,0.5l-2.8,3l-0.1,0.1L57,46.7c1,0.2,2,0.4,3,0.8   C60.5,46.5,61.2,45.5,61.9,44.5L61.9,44.5z M58.7,64.5c4-1.6,5.2-4.8,5-7.3c-0.9,1.3-1.8,2.6-2.6,3.9   C60.3,62.2,59.5,63.3,58.7,64.5L58.7,64.5z M66.6,55.4c1.7-1.7,2.2-3.6,2.2-5.3c-0.9,1.2-1.8,2.4-2.7,3.6   C66.3,54.3,66.5,54.8,66.6,55.4L66.6,55.4z M71.8,49c1.8-1.5,2.5-3,2.5-4.9c-1,0.9-1.9,1.8-2.8,2.8C71.6,47.7,71.7,48.4,71.8,49   L71.8,49z M71.7,51.9c3.7-1.7,5.2-5.7,4.9-9.8c-0.6,0.4-1.2,0.9-1.7,1.4c0.2,2.5-0.7,4.5-3.1,6.3C71.8,50.6,71.8,51.3,71.7,51.9   L71.7,51.9z M57.3,67.3L57.3,67.3c4.2-0.4,7.9-3.7,8.7-8.2V59c0.1-0.9,0.2-1.8,0.1-2.8v-0.1c-0.1-0.6-0.2-1.1-0.4-1.7   c-0.4,0.6-0.9,1.2-1.3,1.9c0.6,3.2-0.8,7.6-6.3,9.2c-0.4,0.6-0.9,1.2-1.4,1.8C56.9,67.3,57.1,67.3,57.3,67.3L57.3,67.3z M41.9,80   L41.9,80c0.1,0.2,0.2,0.3,0.2,0.4c1.4-0.8,2.7-1.7,4-2.8c0,0,0,0,0.1,0c0.6-0.5,1.2-1,1.8-1.5l0.1-0.1c0.6-0.5,1.1-1.1,1.7-1.6   c0,0,0-0.1,0.1-0.1c0.7-0.7,1.5-1.5,2.2-2.3l0.1-0.1c0.6-0.7,1.3-1.5,1.9-2.2c0-0.1,0.1-0.1,0.1-0.1c0.5-0.7,1.1-1.4,1.6-2.1   c0-0.1,0,0,0.1-0.1c0.6-0.8,1.2-1.6,1.7-2.4c0,0,0-0.1,0.1-0.1c2.1-2.9,4.1-5.9,6.1-8.9c0,0,0-0.1,0.1-0.1c0.6-0.8,1.1-1.7,1.7-2.5   c0,0,0-0.1,0.1-0.1c1-1.4,2-2.7,3-4c0.1-0.1,0.2-0.2,0.3-0.4c0,0,0-0.1,0.1-0.1c0.6-0.7,1.2-1.5,1.8-2.2c0,0,0-0.1,0.1-0.1   c1.1-1.2,2.3-2.4,3.4-3.5l0.1-0.1c0.8-0.7,1.5-1.3,2.3-1.8l0.1-0.1l0.1-0.1c0,0,0,0,0.1,0c0.1-0.1,0.2-0.2,0.3-0.2l-0.7-2   c-0.4,0.3-0.8,0.6-1.1,0.9c0,0,0,0-0.1,0.1C61.9,51,56.2,69.1,41.3,79C41.5,79.3,41.7,79.6,41.9,80L41.9,80z M54.7,81.3   C54.7,81.3,54.8,81.3,54.7,81.3c0.4,0.1,0.7,0.1,1,0.1c0.9,0,1.7-0.3,2.4-0.8l0,0c0.8-0.7,1.3-1.7,1.3-2.8c0-0.6-0.1-1.1-0.3-1.5   v-0.1c-0.6-1.2-1.9-2.1-3.3-2.1c-0.2,0-0.4,0-0.5,0h-0.1c-0.7,0.1-1.3,0.4-1.8,0.8h-0.1c-0.8,0.7-1.3,1.7-1.3,2.8   C52,79.4,53.1,80.9,54.7,81.3L54.7,81.3z M45.1,94.8c1.1-0.4,2.1-0.9,2.9-1.4l0.1-0.1c0.8-0.5,1.5-1.1,2.2-1.7c0,0,0-0.1,0.1-0.1   c3.2-3.2,4.1-7.3,4-9.6c-0.7-0.2-1.4-0.7-1.9-1.2c0.4,4.1-0.9,9.1-7,12.1c-0.1,0.1-0.1,0.1-0.2,0.1c0,0-0.1,0-0.2,0   c-1-0.3-2.1-0.9-3-1.5c-0.1-0.1-0.1-0.1-0.2-0.2c-0.8-0.6-1.5-1.4-2-2.2c-0.1-0.1-0.1-0.1-0.1-0.2c-1.2-2.1-1-4.5,2.4-6.5   c-0.2-0.5-0.4-1-0.6-1.5C34.6,85.4,37.3,91.2,45.1,94.8L45.1,94.8z M48.3,94c-0.7,0.4-1.5,0.8-2.3,1.2c4.1,1.7,9.4,2.8,15,2.7   C57.7,96.6,51.5,94.7,48.3,94L48.3,94z M50.7,92.2c-0.5,0.4-1,0.9-1.5,1.2c4,0.9,11.1,3.2,13.6,4.3c1.5-0.1,3.1-0.3,4.6-0.5   C63.1,95.9,54.5,93.2,50.7,92.2L50.7,92.2z M55,82.1c0,2.4-0.8,6.4-3.8,9.6c4.4,1.1,14,4.1,17.5,5.4c0.5-0.1,1-0.2,1.4-0.3   c-0.6-2.8-0.6-6.9,0.8-11.4c-4-0.3-8.5-1.5-12.7-4.1c-0.7,0.5-1.6,0.9-2.6,0.9C55.5,82.1,55.2,82.1,55,82.1L55,82.1z M55,72.4   c0.1,0.3,0.2,0.6,0.3,0.9c0.1,0,0.3,0,0.4,0c0.7,0,1.4,0.2,2,0.5C58.1,71.8,56.2,71,55,72.4L55,72.4z M57.6,68.8   c3.2,0.8,4.3,4.8,2.3,7.2c0.2,0.5,0.3,1.1,0.3,1.7c0,1.2-0.5,2.3-1.2,3.1c6.2,3.8,13.2,4.5,17.8,3.5c4.8-1,6.5-3.6,3.5-6.4   c-0.5-0.5,0.9-1.8,2-1.9c0.1-0.7-0.2-1.2-0.7-1.5c-1.5-0.1-3.9,0.6-5.5,1c-0.1,0.3-0.6,0.4-0.7,0c-0.2-0.5,0.3-1.3,0.4-1.5   c0.2-0.5,0.8-0.2,0.6,0.3c-0.1,0.1-0.2,0.3-0.2,0.5c1.6-0.4,3.8-1.1,5.4-1c0.4-0.3,1.4-1,1.2-1.6c-0.1-0.1-0.2-0.3-0.4-0.6   c-0.8-1-0.4-1.7,0.3-2.5c-1.2-0.2-2.8,0-3.6,0.9c-0.5,0.5-1.3-0.9-1.4-1.1c-0.3-0.8-0.3-1.8,0.9-2.9c0.3-0.3,0.8,0.2,0.5,0.5   c-0.9,0.9-1.2,1.8-0.3,2.7l0,0c1.3-1,3.1-1.2,4.6-0.8l0,0l0,0c2.7-0.2,2.5-1.3,1.8-3.2c-0.3-0.8-0.7-1.7-1-2.7   c-0.6-1.5-1.7-4.6-2.8-8c-3.1-1.2-7.5-0.5-10.8,1c-0.8,1.3-2,2.5-3.7,3.7c-0.8,4.6-4.6,8.1-9,8.6L57.6,68.8L57.6,68.8z M56.8,68.7   l0.1-0.7c-0.3,0-0.5,0-0.8,0c-0.5,0.7-1,1.3-1.5,1.9c0,0.6,0.1,1.1,0.2,1.6c1.5-1.3,4.4-0.4,3.5,2.6c0.5,0.3,0.9,0.8,1.2,1.2   c1.6-2.2,0.2-5.8-2.9-5.9c-0.5,0-0.5-0.7,0-0.7C56.7,68.7,56.8,68.7,56.8,68.7L56.8,68.7z M69.2,43.1c0,0.4-0.3,0.7-0.7,0.7   c-0.4,0-0.7-0.3-0.7-0.7s0.3-0.7,0.7-0.7C68.9,42.5,69.2,42.8,69.2,43.1L69.2,43.1z M71.1,40.9c0,0.4-0.3,0.7-0.7,0.7   c-0.4,0-0.7-0.3-0.7-0.7s0.3-0.7,0.7-0.7C70.8,40.2,71.1,40.5,71.1,40.9L71.1,40.9z M67.4,45.5c0,0.3-0.3,0.6-0.6,0.6   s-0.6-0.3-0.6-0.6s0.3-0.6,0.6-0.6S67.4,45.2,67.4,45.5L67.4,45.5z M47,39.1c0,0.4-0.3,0.7-0.7,0.7s-0.7-0.3-0.7-0.7   s0.3-0.7,0.7-0.7C46.7,38.4,47,38.7,47,39.1L47,39.1z M55.7,79c0.7,0,1.3-0.6,1.3-1.3c0-0.7-0.6-1.3-1.3-1.3s-1.3,0.6-1.3,1.3   S55,79,55.7,79L55.7,79z M55.7,79.7c-1.1,0-2-0.9-2-2s0.9-2,2-2s2,0.9,2,2C57.7,78.8,56.8,79.7,55.7,79.7L55.7,79.7z M83.2,68.6   L83.2,68.6L83.2,68.6L83.2,68.6L83.2,68.6z M72.7,60.6c-0.2-0.6-0.3-1.3-0.2-2.1c-1.1,0.3-2.1,0.8-3,1.5c0.3,0.1,0.8,0.2,1.4,0.4   C71.4,60.5,72,60.6,72.7,60.6L72.7,60.6z M73.2,58.3c-0.1,1,0,1.7,0.2,2.3c0.5,0,0.9,0,1.4-0.1c-0.2-0.3-0.4-0.8-0.4-1.2   c0-0.5,0-0.9,0.2-1.3C74.2,58.1,73.7,58.2,73.2,58.3L73.2,58.3z M76.2,57.2c0.5,0,1-0.1,1.3,0c0.2,0,0.3,0.2,0.3,0.4   c0,0.4-0.6,0.7-1,0.8c0.1,0.2,0.1,0.4,0.1,0.7c0.1,1-0.3,1.9-1,2.1c0,0,0,0-0.1,0c-0.8,0.1-1.7,0.2-2.7,0.2c-0.1,0-0.1,0-0.2,0   c-1.5,0-3-0.3-4.2-0.8l0,0c-0.3,0.4-0.9-0.1-0.5-0.5c0,0,0.1-0.1,0.2-0.2c0,0,0,0,0.1-0.1C69.4,59.1,71.8,57.3,76.2,57.2L76.2,57.2   z"
   id="path1250" />
	<path
   class="st1"
   d="M101.7,30.2v1.3h4v12.4h1.5V31.5h4v-1.3H101.7L101.7,30.2z M114.3,30.2v13.7h7.4v-1.3h-5.9v-5.1h5.4v-1.3h-5.4   v-4.7h5.9v-1.3H114.3L114.3,30.2z M131.9,31.1c1.3,0,2.5,0.3,3.5,1L136,31c-1.3-0.7-2.6-1-4.1-1c-4,0-7.2,2.9-7.2,7.1   c0,4.5,3.2,7.1,7.2,7.1c1.4,0,2.9-0.5,4.1-1.2l-0.5-1c-1.1,0.6-2.3,1-3.5,1c-3.3,0-5.7-2.6-5.7-5.9   C126.2,33.7,128.5,31.1,131.9,31.1L131.9,31.1z M139.5,30.2v13.7h1.5v-6.6h7.5v6.6h1.5V30.2h-1.5v5.9H141v-5.9H139.5L139.5,30.2z    M156.5,29.9l-1.6,0.4v13.6h1.5V32.1l8,12.1l1.6-0.4V30.2h-1.4v11.7L156.5,29.9L156.5,29.9z M171.5,30.2v13.7h1.5V30.2H171.5   L171.5,30.2z M180.9,43.1c-1.1,0-2.2-0.5-2.9-1l-0.6,1c1.1,0.7,2.2,1,3.6,1c3,0,4.4-1.9,4.4-3.9c0-2.1-1.5-3-3-3.7l-1.2-0.6   c-1-0.5-2.1-1.2-2.1-2.4c0-1.8,1.5-2.6,2.7-2.6c1.3,0,2.1,0.4,2.9,1l0.5-1c-1.1-0.6-2.2-1-3.5-1c-2.4,0-4.1,1.5-4.1,3.5   c0,2.9,2.1,3.4,4.1,4.4c1.1,0.5,2,1.2,2,2.6C183.8,42,182.5,43.1,180.9,43.1L180.9,43.1z M195.9,31.1c1.3,0,2.5,0.3,3.5,1L200,31   c-1.3-0.7-2.6-1-4.1-1c-4,0-7.2,2.9-7.2,7.1c0,4.5,3.2,7.1,7.2,7.1c1.4,0,2.9-0.5,4.1-1.2l-0.5-1c-1.1,0.6-2.3,1-3.5,1   c-3.3,0-5.7-2.6-5.7-5.9C190.2,33.7,192.6,31.1,195.9,31.1L195.9,31.1z M203.9,30.2v13.7h1.5v-6.6h7.5v6.6h1.5V30.2h-1.5v5.9h-7.5   v-5.9H203.9L203.9,30.2z M219.3,30.2v13.7h7.5v-1.3h-5.9v-5.1h5.4v-1.3h-5.4v-4.7h5.9v-1.3H219.3L219.3,30.2z M113.9,61.8v-9h-1.5   v8.8c0,3.1-1.5,4-3.8,4c-2.6,0-3.7-1.4-3.7-4v-8.8h-1.6v9.1c0,3.1,1.8,4.8,5.2,4.8C111.1,66.8,113.9,66,113.9,61.8L113.9,61.8z    M119.8,52.6l-1.6,0.4v13.6h1.5V54.8l8,12.1l1.6-0.4V52.9h-1.4v11.7L119.8,52.6L119.8,52.6z M134.2,52.9v13.7h1.5V52.9H134.2   L134.2,52.9z M140.1,52.7l-1.5,0.5l5.2,13.4h1.5l5.3-13.4l-1.5-0.5L144.6,65L140.1,52.7L140.1,52.7z M153.6,52.9v13.7h7.4v-1.3   h-5.9v-5.2h5.3v-1.3h-5.3v-4.7h5.9v-1.3h-7.4V52.9z M168,59.5h-1.8V54h2.2c2.4,0,3.1,1.2,3.1,2.7C171.5,59,169.8,59.5,168,59.5   L168,59.5z M168.8,52.9h-4.1v13.7h1.5v-5.9h1.3c1,0,1.5,0.4,2.1,1.1l0.6,0.8l3.2,4.4l1.3-0.8l-2.7-3.7c-0.5-0.7-1.3-1.9-2.1-2.2V60   c1.9-0.3,3-1.3,3-3.6C172.9,54.3,171.4,52.9,168.8,52.9L168.8,52.9z M180.2,65.8c-1.1,0-2.2-0.5-2.9-1l-0.6,1c1.1,0.7,2.2,1,3.6,1   c3,0,4.4-1.9,4.4-3.9c0-2.1-1.5-3-3-3.7l-1.2-0.6c-1-0.5-2.1-1.2-2.1-2.4c0-1.8,1.5-2.6,2.7-2.6c1.3,0,2.1,0.5,2.9,1l0.5-1   c-1.1-0.6-2.2-1-3.5-1c-2.4,0-4.1,1.5-4.1,3.5c0,2.9,2.1,3.4,4.1,4.4c1.1,0.5,2,1.2,2,2.6C183.1,64.8,181.9,65.8,180.2,65.8   L180.2,65.8z M188.8,52.9v13.7h1.5V52.9H188.8L188.8,52.9z M193.3,52.9v1.3h4v12.4h1.5V54.1h4v-1.3h-9.5V52.9z M209.8,54.2l2.5,6.8   h-5.1L209.8,54.2L209.8,54.2z M216,66.4l-5.4-13.5H209l-5.6,13.5l1.5,0.5l1.8-4.8h6l1.8,4.8L216,66.4L216,66.4z M213.7,52h-1.4v1.8   h1.4V52L213.7,52z M207.3,53.8V52h-1.4v1.8H207.3L207.3,53.8z M217.4,52.9v1.3h4v12.4h1.5V54.2h4v-1.3H217.4L217.4,52.9z M106.8,88   h-2V76.7h2.3c3.8,0,6.3,1.9,6.3,5.6C113.5,85.9,110.9,88,106.8,88L106.8,88z M107.5,75.5h-4.2v13.7h3.7c4.7,0,7.9-2.4,7.9-7   C114.9,78.8,113,75.5,107.5,75.5L107.5,75.5z M123.4,76.9l2.5,6.8h-5.1L123.4,76.9L123.4,76.9z M129.6,89l-5.4-13.5h-1.6L117,89   l1.5,0.5l1.8-4.8h6l1.8,4.8L129.6,89L129.6,89z M136.6,82.2h-1.8v-5.5h2.2c2.4,0,3.1,1.2,3.1,2.7C140.1,81.6,138.4,82.2,136.6,82.2   L136.6,82.2z M137.4,75.5h-4.1v13.7h1.5v-5.9h1.3c1,0,1.5,0.4,2.1,1.1l0.6,0.8l3.2,4.4l1.3-0.8l-2.7-3.6c-0.5-0.7-1.3-1.9-2.1-2.1   v-0.3c1.9-0.3,3-1.3,3-3.6C141.5,77,140,75.5,137.4,75.5L137.4,75.5z M151.8,75.5h-1.7L146.3,89l1.5,0.4l3.2-11.9l3.5,11.6h1.7   l3.5-11.7l3.2,11.9l1.5-0.4l-3.9-13.4h-1.7l-3.5,11.9L151.8,75.5L151.8,75.5z M170.9,88.4c-1.1,0-2.2-0.5-2.9-1l-0.6,1   c1.1,0.7,2.2,1,3.6,1c3,0,4.4-1.9,4.4-3.9c0-2.1-1.5-3-3-3.7l-1.2-0.6c-1-0.5-2.1-1.2-2.1-2.4c0-1.8,1.5-2.6,2.7-2.6   c1.3,0,2.1,0.4,2.9,1l0.5-1c-1.1-0.6-2.2-1-3.5-1c-2.4,0-4.1,1.5-4.1,3.5c0,2.9,2.1,3.4,4.1,4.4c1.1,0.5,2,1.2,2,2.6   C173.8,87.4,172.6,88.4,170.9,88.4L170.9,88.4z M177.9,75.5v1.3h4v12.4h1.5V76.8h4v-1.3H177.9L177.9,75.5z M194.6,76.9l2.5,6.8H192   L194.6,76.9L194.6,76.9z M200.8,89.1l-5.4-13.6h-1.6L188.2,89l1.5,0.5l1.8-4.8h6l1.8,4.8L200.8,89.1L200.8,89.1z M207.5,88h-2V76.7   h2.3c3.8,0,6.3,1.9,6.3,5.6C214.1,85.9,211.5,88,207.5,88L207.5,88z M208.1,75.5h-4.2v13.7h3.7c4.7,0,7.9-2.4,7.9-7   C215.5,78.8,213.6,75.5,208.1,75.5L208.1,75.5z M217.4,75.5v1.3h4v12.4h1.5V76.8h4v-1.3H217.4L217.4,75.5z"
   id="path1252" />
</g>
</svg>
